<?xml version="1.0" encoding="UTF-8" standalone="no"?>
<!-- Generator: Adobe Illustrator 18.0.0, SVG Export Plug-In . SVG Version: 6.00 Build 0)  -->

<svg
   xmlns:dc="http://purl.org/dc/elements/1.1/"
   xmlns:cc="http://creativecommons.org/ns#"
   xmlns:rdf="http://www.w3.org/1999/02/22-rdf-syntax-ns#"
   xmlns:svg="http://www.w3.org/2000/svg"
   xmlns="http://www.w3.org/2000/svg"
   xmlns:sodipodi="http://sodipodi.sourceforge.net/DTD/sodipodi-0.dtd"
   xmlns:inkscape="http://www.inkscape.org/namespaces/inkscape"
   version="1.1"
   id="Calque_2"
   x="0px"
   y="0px"
   viewBox="0 0 879.09996 300.15008"
   enable-background="new 0 0 1133.9 708.7"
   xml:space="preserve"
   inkscape:version="0.91 r13725"
   sodipodi:docname="ManeÌ_noir_new.svg"
   width="879.09998"
   height="300.15009"><metadata
     id="metadata33"><rdf:RDF><cc:Work
         rdf:about=""><dc:format>image/svg+xml</dc:format><dc:type
           rdf:resource="http://purl.org/dc/dcmitype/StillImage" /><dc:title></dc:title></cc:Work></rdf:RDF></metadata><defs
     id="defs31" /><sodipodi:namedview
     pagecolor="#ffffff"
     bordercolor="#666666"
     borderopacity="1"
     objecttolerance="10"
     gridtolerance="10"
     guidetolerance="10"
     inkscape:pageopacity="0"
     inkscape:pageshadow="2"
     inkscape:window-width="1226"
     inkscape:window-height="708"
     id="namedview29"
     showgrid="false"
     fit-margin-top="0"
     fit-margin-left="0"
     fit-margin-right="0"
     fit-margin-bottom="0"
     inkscape:zoom="0.27339271"
     inkscape:cx="440.05001"
     inkscape:cy="146.43118"
     inkscape:window-x="0"
     inkscape:window-y="0"
     inkscape:window-maximized="0"
     inkscape:current-layer="Calque_2" /><g
     id="g3"
     transform="translate(-126.9,-200.63111)"><g
       id="g5"><path
         d="m 131.7,500.7 c 0,0 -4.8,0 -4.8,-4.5 0,-4.5 4.8,-4.5 4.8,-4.5 l 18.3,0 0,-228 -18.3,0 c 0,0 -4.7,-0.1 -4.7,-5 0,-4.9 4.7,-5 4.7,-5 l 68,0 c 0,0 3.8,0 3.8,5 0,5 -3.8,5 -3.8,5 l -40.7,0 0,228 40.7,0 c 0,0 3.9,0 3.9,4.5 0,4.5 -3.9,4.5 -3.9,4.5 l -68,0 z"
         id="path7"
         inkscape:connector-curvature="0"
         style="fill:#FCFCFC" /><g
         id="g9"><path
           d="m 389.3,500.7 c 0,0 4.8,0 4.8,-4.5 0,-4.5 -4.8,-4.5 -4.8,-4.5 l -18.3,0 0,-228 18.3,0 c 0,0 4.8,-0.1 4.8,-5 0,-4.9 -4.7,-5 -4.7,-5 l -68,0 c 0,0 -3.8,0 -3.8,5 0,5 3.8,5 3.8,5 l 40.7,0 0,228 -40.7,0 c 0,0 -3.9,0 -3.9,4.5 0,4.5 3.9,4.5 3.9,4.5 l 67.9,0 z"
           id="path11"
           inkscape:connector-curvature="0"
           style="fill:#FCFCFC" /><path
           d="m 629.7,500.7 c 0,0 -4.8,0 -4.8,-4.5 0,-4.5 4.8,-4.5 4.8,-4.5 l 18.3,0 0,-228 -18.3,0 c 0,0 -4.8,-0.1 -4.8,-5 0,-4.9 4.7,-5 4.7,-5 l 68,0 c 0,0 3.8,0 3.8,5 0,5 -3.8,5 -3.8,5 l -10.4,0 151.8,229.5 c 0,0 2.6,4.3 -0.8,6.8 -3.5,2.5 -6.5,-1.8 -6.5,-1.8 l -155.1,-234.5 -19.6,0 0,228 40.7,0 c 0,0 3.9,0 3.9,4.5 0,4.5 -3.9,4.5 -3.9,4.5 l -68,0 z"
           id="path13"
           inkscape:connector-curvature="0"
           style="fill:#FCFCFC" /><path
           d="M 388.3,491.7 502.5,258.8 c 0,0 2.7,-5.1 7,-5.1 4.3,0 6.9,5 6.9,5 l 114.2,233 -1,9 -25.9,0 c 0,0 -4.8,0 -4.8,-4.5 0,-4.5 4.8,-4.5 4.8,-4.5 l 18,0 -108.6,-221.6 c 0,0 -3.3,-6.5 -3.6,-6.5 -0.3,0 -3.5,6.5 -3.5,6.5 L 394.5,497.5 c 0,0 -0.7,1.2 -1.8,2 -0.9,0.6 -4.4,-7.8 -4.4,-7.8 z"
           id="path15"
           inkscape:connector-curvature="0"
           style="fill:#FCFCFC" /></g><path
         d="m 467.2,372.6 c 0,-5.1 5.8,-4.9 5.8,-4.9 l 73.5,0.1 c 0,0 5.2,-0.2 5.2,4.9 0,5.1 -5.5,5 -5.5,5 l -73.4,-0.1 c 0,0 -5.6,0.1 -5.6,-5 z"
         id="path17"
         inkscape:connector-curvature="0"
         style="fill:#FCFCFC" /><path
         d="m 260.3,332 c -0.6,0 -1.1,-0.5 -1.1,-0.5 L 207,278.2 c 0,0 -3.2,-3.8 0,-6.8 3.2,-3 6.7,0.8 6.7,0.8 l 45.6,45.9 c 0,0 0.5,0.6 1.1,0.6 0.6,0 1.1,-0.6 1.1,-0.6 l 43.9,-46.4 c 0,0 3.7,-3 6.4,-0.2 2.7,2.8 0.1,6.4 0.1,6.4 l -50.4,53.7 c -0.1,-0.1 -0.6,0.4 -1.2,0.4 z"
         id="path19"
         inkscape:connector-curvature="0"
         style="fill:#FCFCFC" /></g><path
       d="m 862.7,500.7 c 0,0 -4.8,0 -4.8,-4.5 0,-4.5 4.8,-4.5 4.8,-4.5 l 139.1,0 c 0,0 3.9,0 3.9,4.5 0,4.5 -3.9,4.5 -3.9,4.5 l -139.1,0 z"
       id="path21"
       inkscape:connector-curvature="0"
       style="fill:#FCFCFC" /><path
       d="m 844.1,485.7 0,-222 c 0,0 -0.3,-6 1.5,-8 1.8,-2 7.2,-2 7.2,-2 l 149.4,0 c 0,0 3.8,0 3.8,5 0,5 -3.8,5 -3.8,5 l -149.1,0 0,222 c 0,0 -1,4 -4.5,4 -3.5,0 -4.5,-4 -4.5,-4 z"
       id="path23"
       inkscape:connector-curvature="0"
       style="fill:#FCFCFC" /><path
       d="m 866.2,372.6 c 0,-5.1 5.6,-4.9 5.6,-4.9 l 53.2,0 0,-22.5 c 0,0 0.3,-3.5 4.3,-3.5 3.9,0 4.3,3.5 4.3,3.5 l 0,55.1 c 0,0 -0.7,3.3 -4.2,3.3 -3.6,0 -4.3,-3.3 -4.3,-3.3 l 0,-22.6 -53.2,-0.1 c -0.1,0 -5.7,0.1 -5.7,-5 z"
       id="path25"
       inkscape:connector-curvature="0"
       style="fill:#FCFCFC" /><path
       d="m 907.8,234.4 57.5,-33.2 c 0,0 4.5,-2 6.5,1.5 2,3.5 -1.9,6.6 -1.9,6.6 l -57.2,33 c 0,0 -4.1,1.8 -6,-1.9 -1.9,-3.7 1.1,-6 1.1,-6 z"
       id="path27"
       inkscape:connector-curvature="0"
       style="fill:#FCFCFC" /></g></svg>