<?xml version="1.0" encoding="UTF-8" standalone="no"?>
<svg
   xmlns:dc="http://purl.org/dc/elements/1.1/"
   xmlns:cc="http://creativecommons.org/ns#"
   xmlns:rdf="http://www.w3.org/1999/02/22-rdf-syntax-ns#"
   xmlns:svg="http://www.w3.org/2000/svg"
   xmlns="http://www.w3.org/2000/svg"
   xmlns:sodipodi="http://sodipodi.sourceforge.net/DTD/sodipodi-0.dtd"
   xmlns:inkscape="http://www.inkscape.org/namespaces/inkscape"
   width="914.16992"
   height="325.44687"
   viewBox="0 0 731.33516 260.35473"
   id="svg2"
   version="1.1"
   inkscape:version="0.91 r13725"
   sodipodi:docname="logo123.svg">
  <metadata
     id="metadata24">
    <rdf:RDF>
      <cc:Work
         rdf:about="">
        <dc:format>image/svg+xml</dc:format>
        <dc:type
           rdf:resource="http://purl.org/dc/dcmitype/StillImage" />
        <dc:title></dc:title>
      </cc:Work>
    </rdf:RDF>
  </metadata>
  <defs
     id="defs22" />
  <sodipodi:namedview
     pagecolor="#ffffff"
     bordercolor="#666666"
     borderopacity="1"
     objecttolerance="10"
     gridtolerance="10"
     guidetolerance="10"
     inkscape:pageopacity="0"
     inkscape:pageshadow="2"
     inkscape:window-width="1104"
     inkscape:window-height="724"
     id="namedview20"
     showgrid="false"
     fit-margin-top="0"
     fit-margin-left="0"
     fit-margin-right="0"
     fit-margin-bottom="0"
     inkscape:zoom="0.29972544"
     inkscape:cx="457.08499"
     inkscape:cy="162.72501"
     inkscape:window-x="0"
     inkscape:window-y="0"
     inkscape:window-maximized="0"
     inkscape:current-layer="svg2" />
  <g
     transform="translate(-15.40481,-16.321245)"
     id="g4"
     style="fill:#ffffff">
    <path
       d="m 699.36,16.32 c 2.46,4.18 4.85,8.39 7.15,12.65 -16.3,11.39 -32.86,22.4 -49.43,33.4 -2.46,-4.31 -4.83,-8.67 -7.34,-12.95 8.09,3.39 15.87,-2.15 22.53,-6.18 7.93,-5.63 16.76,-10.32 23.22,-17.76 2.32,-2.52 3.12,-5.92 3.87,-9.16"
       id="path6"
       inkscape:connector-curvature="0" />
    <path
       d="m 15.65,76.62 c -0.31,-2.13 -0.31,-4.29 -0.09,-6.43 22.38,-0.12 44.75,-0.02 67.13,-0.06 0,2.59 0,5.18 -0.01,7.77 -4.72,0.33 -9.46,0.21 -14.2,0.22 0.02,58.96 -0.01,117.91 0.02,176.87 0.28,5.08 2.53,10.93 7.59,12.98 5.81,2.38 12.24,2.07 18.38,2.65 0.26,1.95 0.37,3.92 0.34,5.9 -23.99,0.19 -47.99,0.08 -71.99,0.15 0.12,-1.73 0.26,-3.46 0.43,-5.19 4.71,-1.09 9.77,-1.65 13.92,-4.33 4.2,-2.9 5.16,-8.34 5.46,-13.09 0.6,-9.68 1.67,-19.35 1.49,-29.07 -0.01,-44.36 0,-88.71 0,-133.07 C 44.38,86.37 40.05,81.7 35.14,79.77 29.01,77.02 22.15,77.55 15.65,76.62"
       id="path8"
       inkscape:connector-curvature="0" />
    <path
       d="m 209.53,70.33 c 17.86,-0.11 35.73,-0.27 53.59,0.08 -0.06,2.01 -0.19,4.02 -0.38,6.02 -6.06,0.95 -12.32,0.91 -18.18,2.85 -3.02,0.97 -5.93,3.06 -7.14,6.06 -0.4,2.53 -0.17,5.1 -0.21,7.65 0.04,52.37 -0.03,104.74 0.03,157.1 0.3,6.53 0.82,15.16 7.92,17.96 8.18,2.88 17.72,3.37 25.79,-0.14 8.01,-4.18 10.84,-13.25 13.92,-21.09 20.48,-49.33 38.52,-99.62 57.76,-149.45 2.43,-6.38 5.1,-12.95 4.66,-19.92 4.41,-1.47 8.11,-4.27 11.8,-6.97 3.05,-0.53 6.17,-0.19 9.26,-0.17 5.22,17.19 11.37,34.09 17.1,51.12 11.26,32.77 22.39,65.58 33.65,98.35 4.19,11.6 7.56,23.51 12.61,34.77 2.47,5.32 5.74,10.97 11.35,13.4 6.65,-1.63 6.91,-9.37 7.72,-14.88 2.53,-23.58 1.72,-47.35 1.89,-71.02 -0.03,-25.99 0.04,-51.98 -0.03,-77.96 0.02,-6.86 -1.44,-14.23 -6.61,-19.15 -6.73,-6.82 -16.89,-7.48 -25.86,-8.52 -0.49,-1.97 -0.6,-3.99 -0.47,-6.01 17.17,-0.39 34.37,-0.13 51.56,-0.13 4.74,9.3 11.18,17.58 17.56,25.78 14.98,18.95 31.24,36.82 47.32,54.83 22.23,24.74 44.18,49.74 66.95,73.99 1.83,1.96 3.83,3.76 6.01,5.33 1.61,-4.23 1.08,-8.81 1.23,-13.23 -0.07,-28.7 0.21,-57.4 -0.25,-86.1 -0.58,-13.15 -0.81,-26.41 -3.36,-39.37 -0.94,-4.05 -1.93,-9 -6.22,-10.79 -6.98,-2.92 -14.67,-3.24 -22.07,-4.3 -0.78,-1.92 -0.96,-3.96 -0.67,-5.99 24.4,-0.46 48.81,-0.07 73.21,-0.2 23.74,0.06 47.49,-0.12 71.23,0.09 2.26,13.32 3.44,26.81 4.52,40.27 -2.17,1.02 -4.52,1.29 -6.86,0.87 -3.11,-8.69 -5.06,-18.59 -12.44,-24.85 -8.32,-7.19 -20,-7.24 -30.39,-7.51 -10.98,-0.52 -21.98,-0.26 -32.98,-0.34 -5.13,-0.07 -10.68,0.15 -15.03,3.2 -2.22,1.4 -2.73,4.12 -3.35,6.47 -2.05,9.03 -2.36,18.32 -2.85,27.54 -0.62,23.67 -0.24,47.36 -0.34,71.05 0,29.83 -0.01,59.66 0.01,89.5 -2.75,0.23 -5.49,0.2 -8.22,-0.04 C 567.08,222.1 519.8,167.8 472.61,113.43 c -1.81,-1.89 -3.65,-4.47 -6.54,-4.43 -1.05,4.25 -0.92,8.69 -0.82,13.03 0.05,35.17 0.21,70.36 -0.07,105.53 0.28,6.5 1.02,12.97 1.67,19.45 0.65,5.34 1.22,10.81 3.3,15.83 1.52,3.33 5.06,5.03 8.47,5.78 5.99,1.4 12.19,1.52 18.28,2.24 0.51,1.81 0.76,3.68 0.78,5.57 -37.84,0.1 -75.68,0.16 -113.52,-0.03 0.46,-1.76 -0.62,-4.82 1.85,-5.31 6.34,-1.55 14.28,0.16 19.26,-4.93 1.37,-4.76 -0.7,-9.71 -1.92,-14.33 -13.85,-42.13 -27.39,-84.37 -41.85,-126.31 -2.76,-7.62 -4.99,-15.46 -8.58,-22.75 -3.59,6.47 -5.86,13.56 -8.5,20.45 -8.65,24.04 -17.65,47.96 -26.29,72 -5.92,15.36 -10.59,31.17 -15.98,46.71 -2.14,7.27 -5.08,14.51 -5.36,22.16 -0.32,2.4 1.69,4.39 3.83,5.08 4.99,1.37 10.25,0.94 15.3,1.93 2.34,0.5 1.59,3.54 2.05,5.3 -44.31,0.2 -88.62,0.11 -132.93,0.05 0.04,-1.9 0.2,-3.78 0.49,-5.65 5.16,-0.66 10.4,-0.84 15.5,-1.94 3.64,-0.77 7.4,-3.05 8.33,-6.88 0.33,-3.31 0.09,-6.65 0.15,-9.96 0.01,-60.57 -0.03,-121.13 0.02,-181.69"
       id="path10"
       inkscape:connector-curvature="0" />
    <path
       d="m 139.81,180.97 c 17.03,-28.17 34.26,-56.22 51.24,-84.42 3.02,1.46 6.03,2.93 9.04,4.38 -11.24,18.47 -22.46,36.95 -33.71,55.41 -8.7,14.54 -18.16,28.71 -24.94,44.3 -0.76,2.48 -5.05,2.41 -5.77,-0.04 -1.78,-4.55 -3.36,-9.19 -5.82,-13.44 -8.44,-14.93 -16.9,-29.86 -25.36,-44.77 -1.23,-2.38 -4.18,-3.24 -5.25,-5.72 -1.22,-2.66 -1.21,-5.73 -2.68,-8.29 -4.54,-8.1 -9.2,-16.14 -13.7,-24.26 2.75,-1.34 5.49,-2.7 8.26,-4.02 16.22,26.96 32.57,53.85 48.69,80.87"
       id="path12"
       inkscape:connector-curvature="0" />
    <path
       d="m 699.48,146.38 c 2.19,-1.59 4.9,-0.83 7.2,0.04 -0.67,16.53 -2.12,33.09 -0.63,49.62 0.1,4.29 0.94,8.62 0.32,12.9 -2.09,1.1 -5.35,1.62 -7.03,-0.26 -1.85,-5.27 -2.36,-10.91 -4.14,-16.2 -1.25,-3.53 -4.01,-6.66 -7.66,-7.75 -5.69,-1.73 -11.71,-1.43 -17.57,-1.86 -11.25,-0.23 -22.5,-0.03 -33.76,-0.11 0.01,-3.38 0.01,-6.75 0,-10.13 16.77,-0.19 33.63,0.67 50.31,-1.42 4.04,-0.37 7.83,-3.01 8.87,-7.05 1.98,-5.78 2.09,-12.03 4.09,-17.78"
       id="path14"
       inkscape:connector-curvature="0" />
    <path
       d="m 336.33,173.16 c 10.15,-0.03 20.3,-0.02 30.45,-0.01 0,3.21 0,6.41 0,9.62 -10.15,0.02 -20.3,0.03 -30.46,0 -0.01,-3.21 -0.01,-6.41 0.01,-9.61"
       id="path16"
       inkscape:connector-curvature="0" />
    <path
       d="m 737.76,236.71 c 0.95,-1.42 1.4,-3.49 3.16,-4.13 2.21,-0.53 4.03,1.1 5.82,2.13 -3.26,14.27 -7.82,28.24 -13.31,41.79 -32.67,0 -65.34,0.01 -98.01,0 0.04,-6.11 0.03,-12.21 0.01,-18.31 3.87,6.02 11.04,8.22 17.78,8.99 9.21,1.27 18.52,1.25 27.79,1.15 8.04,0.1 16.1,-0.2 24.09,-1.16 5.87,-0.87 12.12,-2.32 16.4,-6.74 6.74,-6.89 11.8,-15.23 16.27,-23.72"
       id="path18"
       inkscape:connector-curvature="0" />
  </g>
</svg>
